<?xml version="1.0" encoding="UTF-8"?>
<svg id="_Слой_1" data-name="Слой_1" xmlns="http://www.w3.org/2000/svg" version="1.1" viewBox="0 0 200 200">
  <!-- Generator: Adobe Illustrator 29.8.2, SVG Export Plug-In . SVG Version: 2.1.1 Build 3)  -->
  <defs>
    <style>
      .st0 {
        fill: #003800;
      }

      .st1 {
        fill: #767676;
      }

      .st2 {
        fill: #3f3f3f;
      }

      .st3 {
        fill: #009800;
      }

      .st4 {
        fill: #aeaeae;
      }

      .st5 {
        fill: lime;
      }
    </style>
  </defs>
  <g>
    <path class="st4" d="M117.38,19.45c14.48,6.99,23.54,15.29,30.16,21.34,6.22,5.69,19.15,17.52,29.9,37.06,3.78,6.86,6.97,14.11,9.49,21.54v-44.62c0-22.94-18.77-41.7-41.7-41.7h-44.33c5.65,1.68,11.19,3.82,16.48,6.38Z"/>
    <path class="st1" d="M22.55,77.84c10.75-19.54,23.68-31.37,29.9-37.06,6.62-6.06,15.69-14.35,30.16-21.34,5.29-2.56,10.83-4.7,16.48-6.38h-44.33c-22.94,0-41.7,18.77-41.7,41.7v44.62c2.52-7.43,5.71-14.68,9.49-21.54Z"/>
    <path class="st1" d="M177.45,122.16c-10.75,19.54-23.68,31.37-29.9,37.06-6.62,6.06-15.69,14.35-30.16,21.34-5.29,2.56-10.83,4.7-16.48,6.38h44.33c22.94,0,41.7-18.77,41.7-41.7v-44.62c-2.52,7.43-5.71,14.68-9.49,21.54Z"/>
    <path class="st2" d="M82.62,180.55c-14.48-6.99-23.54-15.29-30.16-21.34-6.22-5.69-19.15-17.52-29.9-37.06-3.78-6.86-6.97-14.11-9.49-21.54v44.62c0,22.94,18.77,41.7,41.7,41.7h44.33c-5.65-1.68-11.19-3.82-16.48-6.38Z"/>
  </g>
  <g>
    <path class="st0" d="M99.98,99.89v-.06H13.19c0,.12.01.25.02.37,4.88.83,9.85,1.74,14.75,2.71,11.42,2.26,17.15,3.4,22.32,5.11,5.43,1.8,14.51,4.82,23.37,12.28,3.69,3.11,12.8,11.81,17.74,25.42.1.27.17.48.31.91.97,2.86,4.06,12.2,6.53,28.48.06.37.11.76.17,1.16.48,2.69.84,5.41,1.06,8.17.09.78.18,1.58.26,2.41.11,0,.22,0,.33,0v-86.95h-.06Z"/>
    <path class="st3" d="M100.05,99.83v.06h-.06v86.95c.11,0,.22,0,.33,0,.1-1.07.21-2.11.32-3.11.17-1.9.4-3.79.7-5.65.25-1.81.49-3.45.72-4.88,2.36-14.78,5.37-23.89,6.29-26.57.15-.43.22-.64.31-.91,4.94-13.61,14.05-22.31,17.74-25.42,8.85-7.46,17.94-10.48,23.37-12.28,5.17-1.72,10.9-2.85,22.32-5.11,4.9-.97,9.85-1.88,14.73-2.71,0-.12,0-.25,0-.37h-86.77Z"/>
    <path class="st3" d="M99.91,13.14s-.09.09-.14.13c-.02.02-.05.03-.07.05-.12,1.34-.26,2.64-.4,3.9-.12,1.19-.26,2.37-.42,3.55-.49,3.82-1.04,7.2-1.56,10.09-2.23,12.38-4.85,20.26-5.64,22.56-.14.4-.21.63-.31.91-4.94,13.61-14.05,22.31-17.74,25.42-8.85,7.46-17.94,10.48-23.37,12.28-5.17,1.72-10.9,2.85-22.32,5.11-4.91.97-9.88,1.89-14.77,2.72,0,.12.01.24.02.37h86.77v-.06h.06V13.27s-.09-.08-.13-.12Z"/>
    <path class="st5" d="M172.07,97.15c-11.42-2.26-17.15-3.4-22.32-5.11-5.43-1.8-14.51-4.82-23.37-12.28-3.69-3.11-12.8-11.81-17.74-25.42-.1-.29-.18-.52-.31-.91-1.24-3.65-3.37-10.43-5.58-23.07-.27-1.54-.55-3.23-.83-5.04-.65-3.28-1.11-6.62-1.37-10.01-.07-.58-.14-1.17-.2-1.77-.08-.07-.17-.12-.24-.2-.04-.04-.08-.08-.12-.12v86.96h.06v.06h86.76c0-.12,0-.25,0-.37-4.88-.83-9.84-1.74-14.74-2.71Z"/>
  </g>
</svg>